<svg width="1100" height="1100" viewBox="0 0 1100 1100" fill="none" xmlns="http://www.w3.org/2000/svg">
<path d="M754.592 816.273C759.283 828.865 760.088 841.019 757.004 852.734C754.142 863.612 748.272 870.705 739.396 874.012L721.877 880.54C700.388 888.547 677.984 884.819 654.666 869.356C631.1 853.231 613.515 829.594 601.909 798.446L410.039 283.51C405.1 270.255 404.062 258.189 406.925 247.311C410.255 236.258 416.358 229.078 425.234 225.771L444.855 218.46C453.731 215.153 462.811 216.676 472.094 223.028C481.845 229.207 489.189 238.923 494.128 252.177L678.96 748.226C682.17 756.841 686.578 760.104 692.184 758.016L695.688 756.71C704.564 753.403 713.644 754.925 722.927 761.278C732.678 767.456 740.022 777.173 744.961 790.427L754.592 816.273Z" fill="#0EA5E9"/>
<path fill-rule="evenodd" clip-rule="evenodd" d="M508.544 606.049C516.544 525.549 265.562 334.181 139.044 345.548C5.54001 357.544 42.0206 527.077 62.5396 543.548C75.7556 554.156 90.0114 561.093 102.34 567.091C123.126 577.206 138.434 584.654 134.04 602.544C132.632 608.278 126.608 617.695 118.682 630.088C87.2113 679.292 25.7452 775.393 104.039 874.044C129.039 905.544 235.539 903.544 289.544 859.55C293.453 856.366 297.746 852.891 302.36 849.157L302.363 849.155C373.948 791.214 522.636 670.868 508.544 606.049ZM268.636 713.531L387.952 644.097C406.582 633.256 406.489 606.313 387.785 595.6L267.995 526.986C249.292 516.273 226.005 529.825 226.079 551.379L226.553 689.427C226.627 710.982 250.007 724.373 268.636 713.531Z" fill="#EC4899"/>
<path fill-rule="evenodd" clip-rule="evenodd" d="M652.539 611.042C617.039 524.542 604.837 332.143 798.037 266.543C991.237 200.943 1053.54 374.544 1037.54 444.043C1021.53 513.542 957.536 564.042 957.536 564.042C991.869 584.209 1059.94 634.542 1057.54 674.542C1055.14 714.542 1025.14 749.318 997.036 732.542C966.875 714.539 943.535 692.423 925.883 675.697C905.787 656.656 893.063 644.599 886.036 653.542C879.204 662.237 892.772 682.331 907.327 703.888C927.927 734.398 950.507 767.839 920.036 776.043C878.436 787.243 715.536 764.542 652.539 611.042ZM849.539 537.545C905.872 537.545 951.539 491.878 951.539 435.545C951.539 379.212 905.872 333.545 849.539 333.545C793.206 333.545 747.539 379.212 747.539 435.545C747.539 491.878 793.206 537.545 849.539 537.545Z" fill="#EC4899"/>
</svg>
